<svg xmlns="http://www.w3.org/2000/svg" xmlns:xlink="http://www.w3.org/1999/xlink" width="625" zoomAndPan="magnify" viewBox="0 0 468.75 93.749996" height="125" preserveAspectRatio="xMidYMid meet" version="1.0"><defs><g/><clipPath id="3a6aebff70"><path d="M 17.234375 19.101562 L 77 19.101562 L 77 78.941406 L 17.234375 78.941406 Z M 17.234375 19.101562 " clip-rule="nonzero"/></clipPath></defs><g clip-path="url(#3a6aebff70)"><path fill="#498536" d="M 76.933594 48.953125 C 76.933594 49.929688 76.886719 50.90625 76.792969 51.878906 C 76.695312 52.851562 76.550781 53.816406 76.359375 54.777344 C 76.171875 55.734375 75.933594 56.683594 75.648438 57.617188 C 75.367188 58.554688 75.035156 59.472656 74.664062 60.375 C 74.289062 61.277344 73.871094 62.160156 73.410156 63.023438 C 72.949219 63.886719 72.449219 64.722656 71.902344 65.535156 C 71.359375 66.347656 70.78125 67.132812 70.160156 67.890625 C 69.539062 68.644531 68.882812 69.367188 68.191406 70.058594 C 67.5 70.75 66.777344 71.40625 66.023438 72.027344 C 65.265625 72.648438 64.480469 73.230469 63.667969 73.773438 C 62.855469 74.316406 62.019531 74.816406 61.15625 75.277344 C 60.292969 75.738281 59.410156 76.15625 58.507812 76.53125 C 57.605469 76.90625 56.683594 77.234375 55.75 77.515625 C 54.8125 77.800781 53.867188 78.039062 52.910156 78.230469 C 51.949219 78.417969 50.984375 78.5625 50.011719 78.660156 C 49.039062 78.753906 48.0625 78.804688 47.085938 78.804688 C 46.105469 78.804688 45.132812 78.753906 44.160156 78.660156 C 43.1875 78.5625 42.21875 78.417969 41.261719 78.230469 C 40.300781 78.039062 39.355469 77.800781 38.417969 77.515625 C 37.484375 77.234375 36.566406 76.90625 35.660156 76.53125 C 34.757812 76.15625 33.875 75.738281 33.011719 75.277344 C 32.152344 74.816406 31.3125 74.316406 30.5 73.773438 C 29.6875 73.230469 28.902344 72.648438 28.148438 72.027344 C 27.390625 71.40625 26.667969 70.75 25.976562 70.058594 C 25.285156 69.367188 24.628906 68.644531 24.011719 67.890625 C 23.390625 67.132812 22.808594 66.347656 22.265625 65.535156 C 21.722656 64.722656 21.21875 63.886719 20.757812 63.023438 C 20.296875 62.160156 19.882812 61.277344 19.507812 60.375 C 19.132812 59.472656 18.804688 58.554688 18.519531 57.617188 C 18.234375 56.683594 18 55.734375 17.808594 54.777344 C 17.617188 53.816406 17.472656 52.851562 17.378906 51.878906 C 17.28125 50.90625 17.234375 49.929688 17.234375 48.953125 C 17.234375 47.976562 17.28125 47 17.378906 46.027344 C 17.472656 45.054688 17.617188 44.089844 17.808594 43.128906 C 18 42.171875 18.234375 41.222656 18.519531 40.289062 C 18.804688 39.351562 19.132812 38.433594 19.507812 37.53125 C 19.882812 36.625 20.296875 35.742188 20.757812 34.882812 C 21.21875 34.019531 21.722656 33.183594 22.265625 32.367188 C 22.808594 31.554688 23.390625 30.773438 24.011719 30.015625 C 24.628906 29.261719 25.285156 28.535156 25.976562 27.84375 C 26.667969 27.152344 27.390625 26.5 28.148438 25.878906 C 28.902344 25.257812 29.6875 24.675781 30.5 24.132812 C 31.3125 23.589844 32.152344 23.089844 33.011719 22.628906 C 33.875 22.167969 34.757812 21.75 35.660156 21.375 C 36.566406 21 37.484375 20.671875 38.417969 20.386719 C 39.355469 20.105469 40.300781 19.867188 41.261719 19.675781 C 42.21875 19.484375 43.1875 19.34375 44.160156 19.246094 C 45.132812 19.152344 46.105469 19.101562 47.085938 19.101562 C 48.0625 19.101562 49.039062 19.152344 50.011719 19.246094 C 50.984375 19.34375 51.949219 19.484375 52.910156 19.675781 C 53.867188 19.867188 54.8125 20.105469 55.75 20.386719 C 56.683594 20.671875 57.605469 21 58.507812 21.375 C 59.410156 21.75 60.292969 22.167969 61.15625 22.628906 C 62.019531 23.089844 62.855469 23.589844 63.667969 24.132812 C 64.480469 24.675781 65.265625 25.257812 66.023438 25.878906 C 66.777344 26.5 67.5 27.152344 68.191406 27.84375 C 68.882812 28.535156 69.539062 29.261719 70.160156 30.015625 C 70.78125 30.773438 71.359375 31.554688 71.902344 32.367188 C 72.449219 33.183594 72.949219 34.019531 73.410156 34.882812 C 73.871094 35.742188 74.289062 36.625 74.664062 37.53125 C 75.035156 38.433594 75.367188 39.351562 75.648438 40.289062 C 75.933594 41.222656 76.171875 42.171875 76.359375 43.128906 C 76.550781 44.089844 76.695312 45.054688 76.792969 46.027344 C 76.886719 47 76.933594 47.976562 76.933594 48.953125 Z M 76.933594 48.953125 " fill-opacity="1" fill-rule="nonzero"/></g><path fill="#ffffff" d="M 30.667969 31.042969 L 39.570312 43.6875 L 44.101562 31.042969 Z M 30.667969 31.042969 " fill-opacity="1" fill-rule="nonzero"/><path fill="#ffffff" d="M 54.546875 31.046875 L 54.546875 37.792969 C 58.144531 40.207031 60.515625 44.304688 60.515625 48.953125 C 60.515625 56.359375 54.492188 62.386719 47.085938 62.386719 C 39.679688 62.386719 33.652344 56.359375 33.652344 48.953125 C 33.652344 44.664062 35.691406 40.855469 38.828125 38.394531 L 35.386719 33.503906 C 30.714844 37.046875 27.683594 42.648438 27.683594 48.953125 C 27.683594 59.652344 36.386719 68.355469 47.085938 68.355469 C 57.78125 68.355469 66.488281 59.652344 66.488281 48.953125 C 66.488281 40.898438 61.550781 33.976562 54.546875 31.046875 Z M 54.546875 31.046875 " fill-opacity="1" fill-rule="nonzero"/><g fill="#498536" fill-opacity="1"><g transform="translate(86.2673, 71.991477)"><g><path d="M 15.546875 -15.46875 L 15.546875 0 L 3.671875 0 L 3.671875 -48 L 21.203125 -48 C 28.609375 -48 33.867188 -46.75 36.984375 -44.25 C 40.097656 -41.75 41.65625 -37.585938 41.65625 -31.765625 C 41.65625 -27.835938 40.820312 -24.632812 39.15625 -22.15625 C 37.5 -19.6875 34.988281 -17.890625 31.625 -16.765625 L 43.328125 0 L 29.09375 0 L 19.140625 -15.46875 Z M 29.625 -31.765625 C 29.625 -33.804688 29.007812 -35.234375 27.78125 -36.046875 C 26.5625 -36.867188 24.367188 -37.28125 21.203125 -37.28125 L 15.546875 -37.28125 L 15.546875 -25.03125 L 21.203125 -25.03125 C 24.367188 -25.03125 26.5625 -25.523438 27.78125 -26.515625 C 29.007812 -27.515625 29.625 -29.265625 29.625 -31.765625 Z M 29.625 -31.765625 "/></g></g></g><g fill="#498536" fill-opacity="1"><g transform="translate(130.89775, 71.991477)"><g><path d="M 36.75 -11.09375 L 36.75 0 L 3.671875 0 L 3.671875 -48 L 36.0625 -48 L 36.0625 -37.28125 L 15.546875 -37.28125 L 15.546875 -29.328125 L 33.234375 -29.328125 L 33.234375 -19.375 L 15.546875 -19.375 L 15.546875 -11.09375 Z M 36.75 -11.09375 "/></g></g></g><g fill="#498536" fill-opacity="1"><g transform="translate(170.016384, 71.991477)"><g><path d="M 41.109375 -14.09375 C 41.109375 -9.238281 39.691406 -5.675781 36.859375 -3.40625 C 34.023438 -1.132812 29.570312 0 23.5 0 L 3.671875 0 L 3.671875 -48 L 23.5 -48 C 29.007812 -48 32.925781 -47.039062 35.25 -45.125 C 37.570312 -43.21875 38.734375 -40.019531 38.734375 -35.53125 C 38.734375 -32.664062 38.347656 -30.476562 37.578125 -28.96875 C 36.816406 -27.46875 35.289062 -26.3125 33 -25.5 C 35.75 -24.9375 37.785156 -23.707031 39.109375 -21.8125 C 40.441406 -19.925781 41.109375 -17.351562 41.109375 -14.09375 Z M 27.796875 -33.765625 C 27.796875 -35.453125 27.472656 -36.625 26.828125 -37.28125 C 26.191406 -37.945312 25.082031 -38.28125 23.5 -38.28125 L 15.546875 -38.28125 L 15.546875 -28.5625 L 23.5 -28.5625 C 25.082031 -28.5625 26.191406 -28.957031 26.828125 -29.75 C 27.472656 -30.539062 27.796875 -31.878906 27.796875 -33.765625 Z M 29.625 -14.859375 C 29.625 -16.691406 29.164062 -17.976562 28.25 -18.71875 C 27.332031 -19.457031 25.75 -19.828125 23.5 -19.828125 L 15.546875 -19.828125 L 15.546875 -10.109375 L 23.5 -10.109375 C 25.75 -10.109375 27.332031 -10.460938 28.25 -11.171875 C 29.164062 -11.890625 29.625 -13.117188 29.625 -14.859375 Z M 29.625 -14.859375 "/></g></g></g><g fill="#498536" fill-opacity="1"><g transform="translate(213.115779, 71.991477)"><g><path d="M 47.234375 -24.046875 C 47.234375 -15.316406 45.457031 -9 41.90625 -5.09375 C 38.363281 -1.1875 32.613281 0.765625 24.65625 0.765625 C 16.332031 0.765625 10.484375 -1.070312 7.109375 -4.75 C 3.742188 -8.425781 2.0625 -14.859375 2.0625 -24.046875 C 2.0625 -32.765625 3.832031 -39.0625 7.375 -42.9375 C 10.925781 -46.820312 16.6875 -48.765625 24.65625 -48.765625 C 32.96875 -48.765625 38.804688 -46.925781 42.171875 -43.25 C 45.546875 -39.582031 47.234375 -33.179688 47.234375 -24.046875 Z M 15.546875 -13.78125 C 16.203125 -12.5 17.179688 -11.601562 18.484375 -11.09375 C 19.785156 -10.582031 21.84375 -10.328125 24.65625 -10.328125 C 27.457031 -10.328125 29.507812 -10.582031 30.8125 -11.09375 C 32.113281 -11.601562 33.097656 -12.5 33.765625 -13.78125 C 34.273438 -14.800781 34.644531 -16.128906 34.875 -17.765625 C 35.101562 -19.398438 35.21875 -21.492188 35.21875 -24.046875 C 35.21875 -26.640625 35.101562 -28.765625 34.875 -30.421875 C 34.644531 -32.085938 34.273438 -33.429688 33.765625 -34.453125 C 33.148438 -35.773438 32.191406 -36.703125 30.890625 -37.234375 C 29.585938 -37.773438 27.507812 -38.046875 24.65625 -38.046875 C 21.789062 -38.046875 19.707031 -37.773438 18.40625 -37.234375 C 17.101562 -36.703125 16.148438 -35.773438 15.546875 -34.453125 C 15.035156 -33.429688 14.664062 -32.085938 14.4375 -30.421875 C 14.207031 -28.765625 14.09375 -26.640625 14.09375 -24.046875 C 14.09375 -21.492188 14.207031 -19.398438 14.4375 -17.765625 C 14.664062 -16.128906 15.035156 -14.800781 15.546875 -13.78125 Z M 15.546875 -13.78125 "/></g></g></g><g fill="#498536" fill-opacity="1"><g transform="translate(262.87526, 71.991477)"><g><path d="M 47.234375 -24.046875 C 47.234375 -15.316406 45.457031 -9 41.90625 -5.09375 C 38.363281 -1.1875 32.613281 0.765625 24.65625 0.765625 C 16.332031 0.765625 10.484375 -1.070312 7.109375 -4.75 C 3.742188 -8.425781 2.0625 -14.859375 2.0625 -24.046875 C 2.0625 -32.765625 3.832031 -39.0625 7.375 -42.9375 C 10.925781 -46.820312 16.6875 -48.765625 24.65625 -48.765625 C 32.96875 -48.765625 38.804688 -46.925781 42.171875 -43.25 C 45.546875 -39.582031 47.234375 -33.179688 47.234375 -24.046875 Z M 15.546875 -13.78125 C 16.203125 -12.5 17.179688 -11.601562 18.484375 -11.09375 C 19.785156 -10.582031 21.84375 -10.328125 24.65625 -10.328125 C 27.457031 -10.328125 29.507812 -10.582031 30.8125 -11.09375 C 32.113281 -11.601562 33.097656 -12.5 33.765625 -13.78125 C 34.273438 -14.800781 34.644531 -16.128906 34.875 -17.765625 C 35.101562 -19.398438 35.21875 -21.492188 35.21875 -24.046875 C 35.21875 -26.640625 35.101562 -28.765625 34.875 -30.421875 C 34.644531 -32.085938 34.273438 -33.429688 33.765625 -34.453125 C 33.148438 -35.773438 32.191406 -36.703125 30.890625 -37.234375 C 29.585938 -37.773438 27.507812 -38.046875 24.65625 -38.046875 C 21.789062 -38.046875 19.707031 -37.773438 18.40625 -37.234375 C 17.101562 -36.703125 16.148438 -35.773438 15.546875 -34.453125 C 15.035156 -33.429688 14.664062 -32.085938 14.4375 -30.421875 C 14.207031 -28.765625 14.09375 -26.640625 14.09375 -24.046875 C 14.09375 -21.492188 14.207031 -19.398438 14.4375 -17.765625 C 14.664062 -16.128906 15.035156 -14.800781 15.546875 -13.78125 Z M 15.546875 -13.78125 "/></g></g></g><g fill="#498536" fill-opacity="1"><g transform="translate(312.634742, 71.991477)"><g><path d="M 38.96875 -48 L 38.96875 -37.28125 L 25.875 -37.28125 L 25.875 0 L 14.015625 0 L 14.015625 -37.28125 L 0.921875 -37.28125 L 0.921875 -48 Z M 38.96875 -48 "/></g></g></g><g fill="#498536" fill-opacity="1"><g transform="translate(352.978229, 71.991477)"><g><path d="M 36.75 -11.09375 L 36.75 0 L 3.671875 0 L 3.671875 -48 L 36.0625 -48 L 36.0625 -37.28125 L 15.546875 -37.28125 L 15.546875 -29.328125 L 33.234375 -29.328125 L 33.234375 -19.375 L 15.546875 -19.375 L 15.546875 -11.09375 Z M 36.75 -11.09375 "/></g></g></g><g fill="#498536" fill-opacity="1"><g transform="translate(392.096857, 71.991477)"><g><path d="M 20.4375 0 L 3.671875 0 L 3.671875 -48 L 20.4375 -48 C 25.34375 -48 29.234375 -47.585938 32.109375 -46.765625 C 34.992188 -45.953125 37.304688 -44.65625 39.046875 -42.875 C 40.785156 -41.082031 42.046875 -38.664062 42.828125 -35.625 C 43.617188 -32.59375 44.015625 -28.734375 44.015625 -24.046875 C 44.015625 -15.722656 42.148438 -9.632812 38.421875 -5.78125 C 34.703125 -1.925781 28.707031 0 20.4375 0 Z M 29.859375 -34.21875 C 29.140625 -35.289062 28.09375 -36.066406 26.71875 -36.546875 C 25.34375 -37.035156 23.25 -37.28125 20.4375 -37.28125 L 15.546875 -37.28125 L 15.546875 -11.09375 L 20.4375 -11.09375 C 23.195312 -11.09375 25.265625 -11.320312 26.640625 -11.78125 C 28.015625 -12.25 29.085938 -12.992188 29.859375 -14.015625 C 30.523438 -14.984375 31.007812 -16.269531 31.3125 -17.875 C 31.613281 -19.476562 31.765625 -21.535156 31.765625 -24.046875 C 31.765625 -26.597656 31.613281 -28.675781 31.3125 -30.28125 C 31.007812 -31.882812 30.523438 -33.195312 29.859375 -34.21875 Z M 29.859375 -34.21875 "/></g></g></g></svg>